# xmcd
#
# Track frame offsets: 
#        150
#        18739
#        38313
#        58988
#        82692
#        100994
#        121200
#        139632
#        159738
#        177749
#        198194
#
# Disc length: 2895 seconds
#
# Revision: 0
# Processed by: cddbd v1.5.2PL0 Copyright (c) Steve Scherf et al.
# Submitted via: ExactAudioCopy v1.0b1
#
DISCID=8c0b4d0b
DTITLE=Marcell - And The Story Continues...
DYEAR=2011
DGENRE=Pop
TTITLE0=Cinta Untukmu
TTITLE1=Peri Cintaku
TTITLE2=Mau Dibawa Kemana
TTITLE3=Sisa Semalam
TTITLE4=Takkan Terganti
TTITLE5=Tanpa Kata feat. Dewi Sandra
TTITLE6=Melati
TTITLE7=Nusantaraku
TTITLE8=I Knew I Loved You
TTITLE9=Permainan Cinta feat. Rayi
TTITLE10=Dia Yang Kucinta
EXTD=
EXTT0=
EXTT1=
EXTT2=
EXTT3=
EXTT4=
EXTT5=
EXTT6=
EXTT7=
EXTT8=
EXTT9=
EXTT10=
PLAYORDER=
